<svg width="334" height="44" viewBox="0 0 334 44" fill="none" xmlns="http://www.w3.org/2000/svg">
<line x1="54.3428" y1="10" x2="174.343" y2="10" stroke="#1C64F2" stroke-width="2" stroke-linecap="round" stroke-dasharray="4 4"/>
<line x1="184.343" y1="10" x2="304.343" y2="10" stroke="#1C64F2" stroke-width="2" stroke-linecap="round" stroke-dasharray="4 4"/>
<ellipse cx="183.181" cy="10" rx="7.88599" ry="8" fill="#F9FAFB"/>
<rect x="175.295" y="2" width="15.772" height="16" rx="7.88599" stroke="#6B7280"/>
<path d="M9.02477 33.1108H7.69522C7.64409 32.8267 7.54892 32.5767 7.40971 32.3608C7.27051 32.1449 7.10005 31.9616 6.89835 31.8111C6.69664 31.6605 6.47079 31.5469 6.22079 31.4702C5.97363 31.3935 5.71085 31.3551 5.43244 31.3551C4.9296 31.3551 4.47931 31.4815 4.08159 31.7344C3.6867 31.9872 3.3742 32.358 3.14409 32.8466C2.91681 33.3352 2.80318 33.9318 2.80318 34.6364C2.80318 35.3466 2.91681 35.946 3.14409 36.4347C3.3742 36.9233 3.68812 37.2926 4.08585 37.5426C4.48358 37.7926 4.93102 37.9176 5.42818 37.9176C5.70375 37.9176 5.96511 37.8807 6.21227 37.8068C6.46227 37.7301 6.68812 37.6179 6.88983 37.4702C7.09153 37.3224 7.26199 37.142 7.40119 36.929C7.54324 36.7131 7.64125 36.4659 7.69522 36.1875L9.02477 36.1918C8.95375 36.6207 8.81596 37.0156 8.61142 37.3764C8.40971 37.7344 8.14977 38.044 7.83159 38.3054C7.51625 38.5639 7.15545 38.7642 6.7492 38.9062C6.34295 39.0483 5.89977 39.1193 5.41966 39.1193C4.66397 39.1193 3.99068 38.9403 3.39977 38.5824C2.80886 38.2216 2.34295 37.706 2.00204 37.0355C1.66397 36.3651 1.49494 35.5653 1.49494 34.6364C1.49494 33.7045 1.66539 32.9048 2.0063 32.2372C2.34721 31.5668 2.81312 31.0526 3.40403 30.6946C3.99494 30.3338 4.66681 30.1534 5.41966 30.1534C5.88272 30.1534 6.31454 30.2202 6.71511 30.3537C7.11852 30.4844 7.48074 30.6776 7.80176 30.9332C8.12278 31.1861 8.38841 31.4957 8.59863 31.8622C8.80886 32.2259 8.95091 32.642 9.02477 33.1108ZM11.7723 30.2727V39H10.4981V30.2727H11.7723ZM13.4864 39V32.4545H14.7606V39H13.4864ZM14.1299 31.4446C13.9083 31.4446 13.718 31.3707 13.5589 31.223C13.4026 31.0724 13.3245 30.8935 13.3245 30.6861C13.3245 30.4759 13.4026 30.2969 13.5589 30.1491C13.718 29.9986 13.9083 29.9233 14.1299 29.9233C14.3515 29.9233 14.5404 29.9986 14.6966 30.1491C14.8557 30.2969 14.9353 30.4759 14.9353 30.6861C14.9353 30.8935 14.8557 31.0724 14.6966 31.223C14.5404 31.3707 14.3515 31.4446 14.1299 31.4446ZM19.2957 39.1321C18.6508 39.1321 18.0954 38.9943 17.6295 38.7188C17.1665 38.4403 16.8085 38.0497 16.5557 37.5469C16.3057 37.0412 16.1807 36.4489 16.1807 35.7699C16.1807 35.0994 16.3057 34.5085 16.5557 33.9972C16.8085 33.4858 17.1608 33.0866 17.6125 32.7997C18.067 32.5128 18.5983 32.3693 19.2062 32.3693C19.5756 32.3693 19.9335 32.4304 20.2801 32.5526C20.6267 32.6747 20.9378 32.8665 21.2133 33.1278C21.4889 33.3892 21.7062 33.7287 21.8653 34.1463C22.0244 34.5611 22.104 35.0653 22.104 35.6591V36.1108H16.9008V35.1562H20.8554C20.8554 34.821 20.7872 34.5241 20.6508 34.2656C20.5145 34.0043 20.3227 33.7983 20.0756 33.6477C19.8312 33.4972 19.5443 33.4219 19.2148 33.4219C18.8568 33.4219 18.5443 33.5099 18.2773 33.6861C18.0131 33.8594 17.8085 34.0866 17.6636 34.3679C17.5216 34.6463 17.4506 34.9489 17.4506 35.2756V36.0213C17.4506 36.4588 17.5273 36.831 17.6807 37.1378C17.8369 37.4446 18.0542 37.679 18.3327 37.8409C18.6111 38 18.9363 38.0795 19.3085 38.0795C19.55 38.0795 19.7702 38.0455 19.969 37.9773C20.1679 37.9062 20.3398 37.8011 20.4846 37.6619C20.6295 37.5227 20.7403 37.3509 20.817 37.1463L22.023 37.3636C21.9264 37.7187 21.7531 38.0298 21.5031 38.2969C21.2559 38.5611 20.9449 38.767 20.5699 38.9148C20.1977 39.0597 19.773 39.1321 19.2957 39.1321ZM24.7918 35.1136V39H23.5177V32.4545H24.7407V33.5199H24.8216C24.9722 33.1733 25.208 32.8949 25.529 32.6847C25.8529 32.4744 26.2606 32.3693 26.752 32.3693C27.1981 32.3693 27.5887 32.4631 27.9239 32.6506C28.2591 32.8352 28.5191 33.1108 28.7037 33.4773C28.8884 33.8437 28.9807 34.2969 28.9807 34.8366V39H27.7066V34.9901C27.7066 34.5156 27.583 34.1449 27.3358 33.8778C27.0887 33.608 26.7492 33.473 26.3174 33.473C26.0219 33.473 25.7591 33.5369 25.529 33.6648C25.3018 33.7926 25.1214 33.9801 24.9878 34.2273C24.8572 34.4716 24.7918 34.767 24.7918 35.1136ZM33.7449 32.4545V33.4773H30.1697V32.4545H33.7449ZM31.1285 30.8864H32.4026V37.0781C32.4026 37.3253 32.4395 37.5114 32.5134 37.6364C32.5873 37.7585 32.6824 37.8423 32.7989 37.8878C32.9182 37.9304 33.0475 37.9517 33.1867 37.9517C33.289 37.9517 33.3785 37.9446 33.4552 37.9304C33.5319 37.9162 33.5915 37.9048 33.6341 37.8963L33.8643 38.9489C33.7904 38.9773 33.6853 39.0057 33.5489 39.0341C33.4126 39.0653 33.2421 39.0824 33.0376 39.0852C32.7023 39.0909 32.3898 39.0312 32.1001 38.9062C31.8103 38.7812 31.5759 38.5881 31.3969 38.3267C31.218 38.0653 31.1285 37.7372 31.1285 37.3423V30.8864ZM37.9051 39.1321C37.2602 39.1321 36.7048 38.9943 36.2389 38.7188C35.7758 38.4403 35.4179 38.0497 35.165 37.5469C34.915 37.0412 34.79 36.4489 34.79 35.7699C34.79 35.0994 34.915 34.5085 35.165 33.9972C35.4179 33.4858 35.7702 33.0866 36.2219 32.7997C36.6764 32.5128 37.2077 32.3693 37.8156 32.3693C38.1849 32.3693 38.5429 32.4304 38.8895 32.5526C39.2361 32.6747 39.5471 32.8665 39.8227 33.1278C40.0983 33.3892 40.3156 33.7287 40.4747 34.1463C40.6338 34.5611 40.7133 35.0653 40.7133 35.6591V36.1108H35.5102V35.1562H39.4648C39.4648 34.821 39.3966 34.5241 39.2602 34.2656C39.1238 34.0043 38.9321 33.7983 38.6849 33.6477C38.4406 33.4972 38.1537 33.4219 37.8241 33.4219C37.4662 33.4219 37.1537 33.5099 36.8866 33.6861C36.6224 33.8594 36.4179 34.0866 36.273 34.3679C36.1309 34.6463 36.0599 34.9489 36.0599 35.2756V36.0213C36.0599 36.4588 36.1366 36.831 36.29 37.1378C36.4463 37.4446 36.6636 37.679 36.942 37.8409C37.2204 38 37.5457 38.0795 37.9179 38.0795C38.1594 38.0795 38.3795 38.0455 38.5784 37.9773C38.7773 37.9062 38.9491 37.8011 39.094 37.6619C39.2389 37.5227 39.3497 37.3509 39.4264 37.1463L40.6324 37.3636C40.5358 37.7187 40.3625 38.0298 40.1125 38.2969C39.8653 38.5611 39.5542 38.767 39.1792 38.9148C38.8071 39.0597 38.3824 39.1321 37.9051 39.1321ZM48.1238 39.1321C47.479 39.1321 46.9236 38.9943 46.4577 38.7188C45.9946 38.4403 45.6366 38.0497 45.3838 37.5469C45.1338 37.0412 45.0088 36.4489 45.0088 35.7699C45.0088 35.0994 45.1338 34.5085 45.3838 33.9972C45.6366 33.4858 45.9889 33.0866 46.4406 32.7997C46.8952 32.5128 47.4264 32.3693 48.0344 32.3693C48.4037 32.3693 48.7616 32.4304 49.1082 32.5526C49.4548 32.6747 49.7659 32.8665 50.0415 33.1278C50.317 33.3892 50.5344 33.7287 50.6934 34.1463C50.8525 34.5611 50.9321 35.0653 50.9321 35.6591V36.1108H45.729V35.1562H49.6835C49.6835 34.821 49.6153 34.5241 49.479 34.2656C49.3426 34.0043 49.1508 33.7983 48.9037 33.6477C48.6594 33.4972 48.3724 33.4219 48.0429 33.4219C47.6849 33.4219 47.3724 33.5099 47.1054 33.6861C46.8412 33.8594 46.6366 34.0866 46.4917 34.3679C46.3497 34.6463 46.2787 34.9489 46.2787 35.2756V36.0213C46.2787 36.4588 46.3554 36.831 46.5088 37.1378C46.665 37.4446 46.8824 37.679 47.1608 37.8409C47.4392 38 47.7645 38.0795 48.1366 38.0795C48.3781 38.0795 48.5983 38.0455 48.7971 37.9773C48.996 37.9062 49.1679 37.8011 49.3128 37.6619C49.4577 37.5227 49.5684 37.3509 49.6452 37.1463L50.8511 37.3636C50.7545 37.7187 50.5812 38.0298 50.3312 38.2969C50.0841 38.5611 49.773 38.767 49.398 38.9148C49.0258 39.0597 48.6011 39.1321 48.1238 39.1321ZM55.6238 39V30.2727H58.7346C59.4136 30.2727 59.9761 30.3963 60.4221 30.6435C60.8682 30.8906 61.202 31.2287 61.4236 31.6577C61.6452 32.0838 61.7559 32.5639 61.7559 33.098C61.7559 33.6349 61.6437 34.1179 61.4193 34.5469C61.1977 34.973 60.8625 35.3111 60.4136 35.5611C59.9676 35.8082 59.4065 35.9318 58.7304 35.9318H56.5912V34.8153H58.6111C59.04 34.8153 59.3881 34.7415 59.6551 34.5938C59.9221 34.4432 60.1182 34.2386 60.2432 33.9801C60.3682 33.7216 60.4307 33.4276 60.4307 33.098C60.4307 32.7685 60.3682 32.4759 60.2432 32.2202C60.1182 31.9645 59.9207 31.7642 59.6508 31.6193C59.3838 31.4744 59.0315 31.402 58.594 31.402H56.9406V39H55.6238ZM63.1974 39V32.4545H64.4289V33.4943H64.4971C64.6164 33.142 64.8266 32.8651 65.1278 32.6634C65.4317 32.4588 65.7755 32.3565 66.159 32.3565C66.2385 32.3565 66.3323 32.3594 66.4403 32.3651C66.551 32.3707 66.6377 32.3778 66.7002 32.3864V33.6051C66.6491 33.5909 66.5582 33.5753 66.4275 33.5582C66.2968 33.5384 66.1661 33.5284 66.0354 33.5284C65.7343 33.5284 65.4658 33.5923 65.23 33.7202C64.9971 33.8452 64.8124 34.0199 64.676 34.2443C64.5397 34.4659 64.4715 34.7187 64.4715 35.0028V39H63.1974ZM70.3256 39.1321C69.7119 39.1321 69.1764 38.9915 68.719 38.7102C68.2616 38.429 67.9065 38.0355 67.6537 37.5298C67.4008 37.0241 67.2744 36.4332 67.2744 35.7571C67.2744 35.0781 67.4008 34.4844 67.6537 33.9759C67.9065 33.4673 68.2616 33.0724 68.719 32.7912C69.1764 32.5099 69.7119 32.3693 70.3256 32.3693C70.9392 32.3693 71.4747 32.5099 71.9321 32.7912C72.3895 33.0724 72.7446 33.4673 72.9974 33.9759C73.2503 34.4844 73.3767 35.0781 73.3767 35.7571C73.3767 36.4332 73.2503 37.0241 72.9974 37.5298C72.7446 38.0355 72.3895 38.429 71.9321 38.7102C71.4747 38.9915 70.9392 39.1321 70.3256 39.1321ZM70.3298 38.0625C70.7275 38.0625 71.0571 37.9574 71.3184 37.7472C71.5798 37.5369 71.773 37.2571 71.898 36.9077C72.0258 36.5582 72.0898 36.1733 72.0898 35.7528C72.0898 35.3352 72.0258 34.9517 71.898 34.6023C71.773 34.25 71.5798 33.9673 71.3184 33.7543C71.0571 33.5412 70.7275 33.4347 70.3298 33.4347C69.9292 33.4347 69.5969 33.5412 69.3327 33.7543C69.0713 33.9673 68.8767 34.25 68.7488 34.6023C68.6238 34.9517 68.5613 35.3352 68.5613 35.7528C68.5613 36.1733 68.6238 36.5582 68.7488 36.9077C68.8767 37.2571 69.0713 37.5369 69.3327 37.7472C69.5969 37.9574 69.9292 38.0625 70.3298 38.0625ZM74.7989 41.4545V32.4545H76.0432V33.5156H76.1498C76.2236 33.3793 76.3302 33.2216 76.4694 33.0426C76.6086 32.8636 76.8018 32.7074 77.0489 32.5739C77.2961 32.4375 77.6228 32.3693 78.029 32.3693C78.5574 32.3693 79.029 32.5028 79.4438 32.7699C79.8586 33.0369 80.1839 33.4219 80.4197 33.9247C80.6583 34.4276 80.7776 35.0327 80.7776 35.7401C80.7776 36.4474 80.6597 37.054 80.4239 37.5597C80.1881 38.0625 79.8643 38.4503 79.4523 38.723C79.0404 38.9929 78.5702 39.1278 78.0418 39.1278C77.6441 39.1278 77.3188 39.0611 77.066 38.9276C76.816 38.794 76.6199 38.6378 76.4779 38.4588C76.3358 38.2798 76.2265 38.1207 76.1498 37.9815H76.0731V41.4545H74.7989ZM76.0475 35.7273C76.0475 36.1875 76.1143 36.5909 76.2478 36.9375C76.3813 37.2841 76.5745 37.5554 76.8273 37.7514C77.0802 37.9446 77.3898 38.0412 77.7563 38.0412C78.137 38.0412 78.4552 37.9403 78.7108 37.7386C78.9665 37.5341 79.1597 37.2571 79.2904 36.9077C79.4239 36.5582 79.4907 36.1648 79.4907 35.7273C79.4907 35.2955 79.4253 34.9077 79.2947 34.5639C79.1668 34.2202 78.9736 33.9489 78.7151 33.75C78.4594 33.5511 78.1398 33.4517 77.7563 33.4517C77.387 33.4517 77.0745 33.5469 76.8188 33.7372C76.566 33.9276 76.3742 34.1932 76.2435 34.5341C76.1128 34.875 76.0475 35.2727 76.0475 35.7273ZM84.9623 39.1321C84.3486 39.1321 83.8131 38.9915 83.3557 38.7102C82.8983 38.429 82.5432 38.0355 82.2904 37.5298C82.0376 37.0241 81.9111 36.4332 81.9111 35.7571C81.9111 35.0781 82.0376 34.4844 82.2904 33.9759C82.5432 33.4673 82.8983 33.0724 83.3557 32.7912C83.8131 32.5099 84.3486 32.3693 84.9623 32.3693C85.5759 32.3693 86.1114 32.5099 86.5688 32.7912C87.0262 33.0724 87.3813 33.4673 87.6341 33.9759C87.887 34.4844 88.0134 35.0781 88.0134 35.7571C88.0134 36.4332 87.887 37.0241 87.6341 37.5298C87.3813 38.0355 87.0262 38.429 86.5688 38.7102C86.1114 38.9915 85.5759 39.1321 84.9623 39.1321ZM84.9665 38.0625C85.3643 38.0625 85.6938 37.9574 85.9552 37.7472C86.2165 37.5369 86.4097 37.2571 86.5347 36.9077C86.6626 36.5582 86.7265 36.1733 86.7265 35.7528C86.7265 35.3352 86.6626 34.9517 86.5347 34.6023C86.4097 34.25 86.2165 33.9673 85.9552 33.7543C85.6938 33.5412 85.3643 33.4347 84.9665 33.4347C84.566 33.4347 84.2336 33.5412 83.9694 33.7543C83.708 33.9673 83.5134 34.25 83.3856 34.6023C83.2606 34.9517 83.1981 35.3352 83.1981 35.7528C83.1981 36.1733 83.2606 36.5582 83.3856 36.9077C83.5134 37.2571 83.708 37.5369 83.9694 37.7472C84.2336 37.9574 84.566 38.0625 84.9665 38.0625ZM94.3405 34.0526L93.1856 34.2571C93.1373 34.1094 93.0606 33.9687 92.9555 33.8352C92.8532 33.7017 92.714 33.5923 92.5379 33.5071C92.3618 33.4219 92.1416 33.3793 91.8774 33.3793C91.5166 33.3793 91.2155 33.4602 90.974 33.6222C90.7325 33.7812 90.6118 33.9872 90.6118 34.2401C90.6118 34.4588 90.6927 34.6349 90.8547 34.7685C91.0166 34.902 91.278 35.0114 91.6388 35.0966L92.6785 35.3352C93.2808 35.4744 93.7297 35.6889 94.0251 35.9787C94.3206 36.2685 94.4683 36.6449 94.4683 37.108C94.4683 37.5 94.3547 37.8494 94.1274 38.1562C93.903 38.4602 93.589 38.6989 93.1856 38.8722C92.7851 39.0455 92.3206 39.1321 91.7922 39.1321C91.0592 39.1321 90.4612 38.9759 89.9981 38.6634C89.5351 38.348 89.251 37.9006 89.1459 37.321L90.3774 37.1335C90.4541 37.4545 90.6118 37.6974 90.8504 37.8622C91.089 38.0241 91.4001 38.1051 91.7836 38.1051C92.2013 38.1051 92.5351 38.0185 92.7851 37.8452C93.0351 37.669 93.1601 37.4545 93.1601 37.2017C93.1601 36.9972 93.0834 36.8253 92.93 36.6861C92.7794 36.5469 92.5479 36.4418 92.2354 36.3707L91.1274 36.1278C90.5166 35.9886 90.0649 35.767 89.7723 35.4631C89.4825 35.1591 89.3376 34.7741 89.3376 34.3082C89.3376 33.9219 89.4456 33.5838 89.6615 33.294C89.8774 33.0043 90.1757 32.7784 90.5564 32.6165C90.9371 32.4517 91.3731 32.3693 91.8646 32.3693C92.572 32.3693 93.1288 32.5227 93.5351 32.8295C93.9413 33.1335 94.2098 33.5412 94.3405 34.0526ZM98.9246 32.4545V33.4773H95.3493V32.4545H98.9246ZM96.3081 30.8864H97.5823V37.0781C97.5823 37.3253 97.6192 37.5114 97.6931 37.6364C97.767 37.7585 97.8621 37.8423 97.9786 37.8878C98.0979 37.9304 98.2272 37.9517 98.3664 37.9517C98.4687 37.9517 98.5581 37.9446 98.6349 37.9304C98.7116 37.9162 98.7712 37.9048 98.8138 37.8963L99.0439 38.9489C98.9701 38.9773 98.865 39.0057 98.7286 39.0341C98.5922 39.0653 98.4218 39.0824 98.2172 39.0852C97.882 39.0909 97.5695 39.0312 97.2797 38.9062C96.99 38.7812 96.7556 38.5881 96.5766 38.3267C96.3976 38.0653 96.3081 37.7372 96.3081 37.3423V30.8864ZM102.239 39.1449C101.824 39.1449 101.449 39.0682 101.114 38.9148C100.779 38.7585 100.513 38.5327 100.317 38.2372C100.124 37.9418 100.027 37.5795 100.027 37.1506C100.027 36.7812 100.098 36.4773 100.24 36.2386C100.382 36 100.574 35.8111 100.816 35.6719C101.057 35.5327 101.327 35.4276 101.625 35.3565C101.924 35.2855 102.228 35.2315 102.537 35.1946C102.929 35.1491 103.247 35.1122 103.492 35.0838C103.736 35.0526 103.914 35.0028 104.024 34.9347C104.135 34.8665 104.191 34.7557 104.191 34.6023V34.5724C104.191 34.2003 104.085 33.9119 103.875 33.7074C103.668 33.5028 103.358 33.4006 102.946 33.4006C102.517 33.4006 102.179 33.4957 101.932 33.6861C101.688 33.8736 101.519 34.0824 101.425 34.3125L100.228 34.0398C100.37 33.642 100.577 33.321 100.85 33.0767C101.125 32.8295 101.442 32.6506 101.8 32.5398C102.158 32.4261 102.534 32.3693 102.929 32.3693C103.191 32.3693 103.468 32.4006 103.76 32.4631C104.056 32.5227 104.331 32.6335 104.587 32.7955C104.845 32.9574 105.057 33.1889 105.222 33.4901C105.387 33.7884 105.469 34.1761 105.469 34.6534V39H104.225V38.1051H104.174C104.091 38.2699 103.968 38.4318 103.803 38.5909C103.638 38.75 103.426 38.8821 103.168 38.9872C102.909 39.0923 102.6 39.1449 102.239 39.1449ZM102.516 38.1222C102.868 38.1222 103.169 38.0526 103.419 37.9134C103.672 37.7741 103.864 37.5923 103.995 37.3679C104.128 37.1406 104.195 36.8977 104.195 36.6392V35.7955C104.149 35.8409 104.061 35.8835 103.931 35.9233C103.803 35.9602 103.657 35.9929 103.492 36.0213C103.327 36.0469 103.166 36.071 103.01 36.0938C102.854 36.1136 102.723 36.1307 102.618 36.1449C102.371 36.1761 102.145 36.2287 101.941 36.3026C101.739 36.3764 101.577 36.483 101.455 36.6222C101.335 36.7585 101.276 36.9403 101.276 37.1676C101.276 37.483 101.392 37.7216 101.625 37.8835C101.858 38.0426 102.155 38.1222 102.516 38.1222Z" fill="#1C64F2"/>
<path d="M167.25 39H164.425V30.2727H167.339C168.195 30.2727 168.929 30.4474 169.543 30.7969C170.156 31.1435 170.626 31.642 170.953 32.2926C171.283 32.9403 171.447 33.7173 171.447 34.6236C171.447 35.5327 171.281 36.3139 170.949 36.9673C170.619 37.6207 170.142 38.1236 169.517 38.4759C168.892 38.8253 168.136 39 167.25 39ZM165.741 37.8494H167.177C167.842 37.8494 168.395 37.7244 168.835 37.4744C169.275 37.2216 169.605 36.8565 169.824 36.3793C170.043 35.8991 170.152 35.3139 170.152 34.6236C170.152 33.9389 170.043 33.358 169.824 32.8807C169.608 32.4034 169.285 32.0412 168.856 31.794C168.427 31.5469 167.895 31.4233 167.258 31.4233H165.741V37.8494ZM175.804 39.1321C175.159 39.1321 174.603 38.9943 174.137 38.7188C173.674 38.4403 173.316 38.0497 173.063 37.5469C172.813 37.0412 172.688 36.4489 172.688 35.7699C172.688 35.0994 172.813 34.5085 173.063 33.9972C173.316 33.4858 173.669 33.0866 174.12 32.7997C174.575 32.5128 175.106 32.3693 175.714 32.3693C176.083 32.3693 176.441 32.4304 176.788 32.5526C177.134 32.6747 177.446 32.8665 177.721 33.1278C177.997 33.3892 178.214 33.7287 178.373 34.1463C178.532 34.5611 178.612 35.0653 178.612 35.6591V36.1108H173.409V35.1562H177.363C177.363 34.821 177.295 34.5241 177.159 34.2656C177.022 34.0043 176.831 33.7983 176.583 33.6477C176.339 33.4972 176.052 33.4219 175.723 33.4219C175.365 33.4219 175.052 33.5099 174.785 33.6861C174.521 33.8594 174.316 34.0866 174.171 34.3679C174.029 34.6463 173.958 34.9489 173.958 35.2756V36.0213C173.958 36.4588 174.035 36.831 174.188 37.1378C174.345 37.4446 174.562 37.679 174.84 37.8409C175.119 38 175.444 38.0795 175.816 38.0795C176.058 38.0795 176.278 38.0455 176.477 37.9773C176.676 37.9062 176.848 37.8011 176.992 37.6619C177.137 37.5227 177.248 37.3509 177.325 37.1463L178.531 37.3636C178.434 37.7187 178.261 38.0298 178.011 38.2969C177.764 38.5611 177.453 38.767 177.078 38.9148C176.706 39.0597 176.281 39.1321 175.804 39.1321ZM184.93 34.0526L183.775 34.2571C183.727 34.1094 183.65 33.9687 183.545 33.8352C183.443 33.7017 183.304 33.5923 183.128 33.5071C182.952 33.4219 182.731 33.3793 182.467 33.3793C182.106 33.3793 181.805 33.4602 181.564 33.6222C181.322 33.7812 181.202 33.9872 181.202 34.2401C181.202 34.4588 181.283 34.6349 181.445 34.7685C181.606 34.902 181.868 35.0114 182.229 35.0966L183.268 35.3352C183.871 35.4744 184.32 35.6889 184.615 35.9787C184.91 36.2685 185.058 36.6449 185.058 37.108C185.058 37.5 184.945 37.8494 184.717 38.1562C184.493 38.4602 184.179 38.6989 183.775 38.8722C183.375 39.0455 182.91 39.1321 182.382 39.1321C181.649 39.1321 181.051 38.9759 180.588 38.6634C180.125 38.348 179.841 37.9006 179.736 37.321L180.967 37.1335C181.044 37.4545 181.202 37.6974 181.44 37.8622C181.679 38.0241 181.99 38.1051 182.373 38.1051C182.791 38.1051 183.125 38.0185 183.375 37.8452C183.625 37.669 183.75 37.4545 183.75 37.2017C183.75 36.9972 183.673 36.8253 183.52 36.6861C183.369 36.5469 183.138 36.4418 182.825 36.3707L181.717 36.1278C181.106 35.9886 180.655 35.767 180.362 35.4631C180.072 35.1591 179.927 34.7741 179.927 34.3082C179.927 33.9219 180.035 33.5838 180.251 33.294C180.467 33.0043 180.766 32.7784 181.146 32.6165C181.527 32.4517 181.963 32.3693 182.454 32.3693C183.162 32.3693 183.719 32.5227 184.125 32.8295C184.531 33.1335 184.8 33.5412 184.93 34.0526ZM186.459 39V32.4545H187.733V39H186.459ZM187.103 31.4446C186.881 31.4446 186.691 31.3707 186.532 31.223C186.375 31.0724 186.297 30.8935 186.297 30.6861C186.297 30.4759 186.375 30.2969 186.532 30.1491C186.691 29.9986 186.881 29.9233 187.103 29.9233C187.324 29.9233 187.513 29.9986 187.669 30.1491C187.828 30.2969 187.908 30.4759 187.908 30.6861C187.908 30.8935 187.828 31.0724 187.669 31.223C187.513 31.3707 187.324 31.4446 187.103 31.4446ZM192.192 41.5909C191.672 41.5909 191.224 41.5227 190.849 41.3864C190.477 41.25 190.173 41.0696 189.937 40.8452C189.702 40.6207 189.525 40.375 189.409 40.108L190.504 39.6562C190.581 39.7812 190.683 39.9134 190.811 40.0526C190.942 40.1946 191.118 40.3153 191.339 40.4148C191.564 40.5142 191.852 40.5639 192.204 40.5639C192.687 40.5639 193.087 40.446 193.402 40.2102C193.717 39.9773 193.875 39.6051 193.875 39.0938V37.8068H193.794C193.717 37.946 193.606 38.1009 193.462 38.2713C193.32 38.4418 193.123 38.5895 192.873 38.7145C192.623 38.8395 192.298 38.902 191.898 38.902C191.381 38.902 190.915 38.7812 190.5 38.5398C190.088 38.2955 189.761 37.9361 189.52 37.4616C189.281 36.9844 189.162 36.3977 189.162 35.7017C189.162 35.0057 189.28 34.4091 189.516 33.9119C189.754 33.4148 190.081 33.0341 190.496 32.7699C190.91 32.5028 191.381 32.3693 191.906 32.3693C192.312 32.3693 192.641 32.4375 192.891 32.5739C193.141 32.7074 193.335 32.8636 193.474 33.0426C193.616 33.2216 193.726 33.3793 193.802 33.5156H193.896V32.4545H195.145V39.1449C195.145 39.7074 195.014 40.169 194.753 40.5298C194.491 40.8906 194.138 41.1577 193.692 41.331C193.248 41.5043 192.748 41.5909 192.192 41.5909ZM192.179 37.8452C192.545 37.8452 192.855 37.7599 193.108 37.5895C193.364 37.4162 193.557 37.169 193.687 36.848C193.821 36.5241 193.888 36.1364 193.888 35.6847C193.888 35.2443 193.822 34.8565 193.692 34.5213C193.561 34.1861 193.369 33.9247 193.116 33.7372C192.864 33.5469 192.551 33.4517 192.179 33.4517C191.795 33.4517 191.476 33.5511 191.22 33.75C190.964 33.946 190.771 34.2131 190.641 34.5511C190.513 34.8892 190.449 35.267 190.449 35.6847C190.449 36.1136 190.514 36.4901 190.645 36.8139C190.775 37.1378 190.969 37.3906 191.224 37.5724C191.483 37.7543 191.801 37.8452 192.179 37.8452ZM198.128 35.1136V39H196.854V32.4545H198.077V33.5199H198.158C198.308 33.1733 198.544 32.8949 198.865 32.6847C199.189 32.4744 199.597 32.3693 200.088 32.3693C200.534 32.3693 200.925 32.4631 201.26 32.6506C201.595 32.8352 201.855 33.1108 202.04 33.4773C202.224 33.8437 202.317 34.2969 202.317 34.8366V39H201.043V34.9901C201.043 34.5156 200.919 34.1449 200.672 33.8778C200.425 33.608 200.085 33.473 199.653 33.473C199.358 33.473 199.095 33.5369 198.865 33.6648C198.638 33.7926 198.457 33.9801 198.324 34.2273C198.193 34.4716 198.128 34.767 198.128 35.1136Z" fill="#1C64F2"/>
<path d="M293.557 39V30.2727H296.668C297.344 30.2727 297.905 30.3892 298.351 30.6222C298.8 30.8551 299.136 31.1776 299.357 31.5895C299.579 31.9986 299.69 32.4716 299.69 33.0085C299.69 33.5426 299.577 34.0128 299.353 34.419C299.131 34.8224 298.796 35.1364 298.347 35.3608C297.901 35.5852 297.34 35.6974 296.664 35.6974H294.307V34.5639H296.545C296.971 34.5639 297.317 34.5028 297.584 34.3807C297.854 34.2585 298.052 34.081 298.177 33.848C298.302 33.6151 298.364 33.3352 298.364 33.0085C298.364 32.679 298.3 32.3935 298.172 32.152C298.047 31.9105 297.85 31.7259 297.58 31.598C297.313 31.4673 296.962 31.402 296.528 31.402H294.874V39H293.557ZM297.866 35.0625L300.022 39H298.522L296.408 35.0625H297.866ZM303.929 39.1321C303.284 39.1321 302.728 38.9943 302.262 38.7188C301.799 38.4403 301.441 38.0497 301.188 37.5469C300.938 37.0412 300.813 36.4489 300.813 35.7699C300.813 35.0994 300.938 34.5085 301.188 33.9972C301.441 33.4858 301.794 33.0866 302.245 32.7997C302.7 32.5128 303.231 32.3693 303.839 32.3693C304.208 32.3693 304.566 32.4304 304.913 32.5526C305.259 32.6747 305.571 32.8665 305.846 33.1278C306.122 33.3892 306.339 33.7287 306.498 34.1463C306.657 34.5611 306.737 35.0653 306.737 35.6591V36.1108H301.534V35.1562H305.488C305.488 34.821 305.42 34.5241 305.284 34.2656C305.147 34.0043 304.956 33.7983 304.708 33.6477C304.464 33.4972 304.177 33.4219 303.848 33.4219C303.49 33.4219 303.177 33.5099 302.91 33.6861C302.646 33.8594 302.441 34.0866 302.296 34.3679C302.154 34.6463 302.083 34.9489 302.083 35.2756V36.0213C302.083 36.4588 302.16 36.831 302.313 37.1378C302.47 37.4446 302.687 37.679 302.965 37.8409C303.244 38 303.569 38.0795 303.941 38.0795C304.183 38.0795 304.403 38.0455 304.602 37.9773C304.801 37.9062 304.973 37.8011 305.117 37.6619C305.262 37.5227 305.373 37.3509 305.45 37.1463L306.656 37.3636C306.559 37.7187 306.386 38.0298 306.136 38.2969C305.889 38.5611 305.578 38.767 305.203 38.9148C304.831 39.0597 304.406 39.1321 303.929 39.1321ZM313.562 32.4545L311.189 39H309.825L307.447 32.4545H308.815L310.473 37.4915H310.541L312.195 32.4545H313.562ZM314.76 39V32.4545H316.034V39H314.76ZM315.403 31.4446C315.182 31.4446 314.991 31.3707 314.832 31.223C314.676 31.0724 314.598 30.8935 314.598 30.6861C314.598 30.4759 314.676 30.2969 314.832 30.1491C314.991 29.9986 315.182 29.9233 315.403 29.9233C315.625 29.9233 315.814 29.9986 315.97 30.1491C316.129 30.2969 316.209 30.4759 316.209 30.6861C316.209 30.8935 316.129 31.0724 315.97 31.223C315.814 31.3707 315.625 31.4446 315.403 31.4446ZM320.569 39.1321C319.924 39.1321 319.369 38.9943 318.903 38.7188C318.44 38.4403 318.082 38.0497 317.829 37.5469C317.579 37.0412 317.454 36.4489 317.454 35.7699C317.454 35.0994 317.579 34.5085 317.829 33.9972C318.082 33.4858 318.434 33.0866 318.886 32.7997C319.34 32.5128 319.872 32.3693 320.48 32.3693C320.849 32.3693 321.207 32.4304 321.554 32.5526C321.9 32.6747 322.211 32.8665 322.487 33.1278C322.762 33.3892 322.98 33.7287 323.139 34.1463C323.298 34.5611 323.377 35.0653 323.377 35.6591V36.1108H318.174V35.1562H322.129C322.129 34.821 322.061 34.5241 321.924 34.2656C321.788 34.0043 321.596 33.7983 321.349 33.6477C321.105 33.4972 320.818 33.4219 320.488 33.4219C320.13 33.4219 319.818 33.5099 319.551 33.6861C319.286 33.8594 319.082 34.0866 318.937 34.3679C318.795 34.6463 318.724 34.9489 318.724 35.2756V36.0213C318.724 36.4588 318.801 36.831 318.954 37.1378C319.11 37.4446 319.328 37.679 319.606 37.8409C319.884 38 320.21 38.0795 320.582 38.0795C320.823 38.0795 321.044 38.0455 321.242 37.9773C321.441 37.9062 321.613 37.8011 321.758 37.6619C321.903 37.5227 322.014 37.3509 322.09 37.1463L323.296 37.3636C323.2 37.7187 323.027 38.0298 322.777 38.2969C322.529 38.5611 322.218 38.767 321.843 38.9148C321.471 39.0597 321.046 39.1321 320.569 39.1321ZM326.198 39L324.272 32.4545H325.589L326.872 37.2614H326.936L328.223 32.4545H329.539L330.818 37.2401H330.882L332.156 32.4545H333.473L331.551 39H330.251L328.921 34.2741H328.823L327.494 39H326.198Z" fill="#6B7280"/>
<path opacity="0.8" d="M313.229 17C317.104 17 320.172 13.8252 320.172 10C320.172 6.17475 317.104 3 313.229 3C309.354 3 306.286 6.17475 306.286 10C306.286 13.8252 309.354 17 313.229 17Z" stroke="#C3DDFD" stroke-width="6"/>
<ellipse cx="313.229" cy="10" rx="7.88599" ry="8" fill="#1C64F2"/>
<ellipse cx="313.229" cy="10" rx="3.94299" ry="4" fill="white"/>
<ellipse cx="53.2288" cy="10" rx="7.88599" ry="8" fill="#1C64F2"/>
<rect x="45.3428" y="2" width="15.772" height="16" rx="7.88599" stroke="#1C64F2"/>
<ellipse cx="183.229" cy="10" rx="7.88599" ry="8" fill="#1C64F2"/>
<rect x="175.343" y="2" width="15.772" height="16" rx="7.88599" stroke="#1C64F2"/>
</svg>
