<svg width="334" height="44" viewBox="0 0 334 44" fill="none" xmlns="http://www.w3.org/2000/svg">
<line x1="54" y1="10" x2="174" y2="10" stroke="#1C64F2" stroke-width="2" stroke-linecap="round" stroke-dasharray="4 4"/>
<line x1="186" y1="10" x2="306" y2="10" stroke="#6B7280" stroke-width="2" stroke-linecap="round" stroke-dasharray="4 4"/>
<ellipse cx="182.838" cy="10" rx="7.88599" ry="8" fill="#F9FAFB"/>
<rect x="174.952" y="2" width="15.772" height="16" rx="7.88599" stroke="#6B7280"/>
<ellipse cx="312.957" cy="10" rx="7.88599" ry="8" fill="#F9FAFB"/>
<rect x="305.071" y="2" width="15.772" height="16" rx="7.88599" stroke="#6B7280"/>
<path d="M8.68224 33.1108H7.35269C7.30156 32.8267 7.20639 32.5767 7.06718 32.3608C6.92798 32.1449 6.75752 31.9616 6.55582 31.8111C6.35412 31.6605 6.12826 31.5469 5.87826 31.4702C5.6311 31.3935 5.36832 31.3551 5.08991 31.3551C4.58707 31.3551 4.13679 31.4815 3.73906 31.7344C3.34417 31.9872 3.03167 32.358 2.80156 32.8466C2.57429 33.3352 2.46065 33.9318 2.46065 34.6364C2.46065 35.3466 2.57429 35.946 2.80156 36.4347C3.03167 36.9233 3.34559 37.2926 3.74332 37.5426C4.14105 37.7926 4.58849 37.9176 5.08565 37.9176C5.36122 37.9176 5.62258 37.8807 5.86974 37.8068C6.11974 37.7301 6.34559 37.6179 6.5473 37.4702C6.749 37.3224 6.91946 37.142 7.05866 36.929C7.20071 36.7131 7.29872 36.4659 7.35269 36.1875L8.68224 36.1918C8.61122 36.6207 8.47343 37.0156 8.26889 37.3764C8.06718 37.7344 7.80724 38.044 7.48906 38.3054C7.17372 38.5639 6.81292 38.7642 6.40667 38.9062C6.00042 39.0483 5.55724 39.1193 5.07713 39.1193C4.32144 39.1193 3.64815 38.9403 3.05724 38.5824C2.46633 38.2216 2.00042 37.706 1.65951 37.0355C1.32144 36.3651 1.15241 35.5653 1.15241 34.6364C1.15241 33.7045 1.32286 32.9048 1.66377 32.2372C2.00468 31.5668 2.47059 31.0526 3.0615 30.6946C3.65241 30.3338 4.32429 30.1534 5.07713 30.1534C5.54019 30.1534 5.97201 30.2202 6.37258 30.3537C6.77599 30.4844 7.13821 30.6776 7.45923 30.9332C7.78025 31.1861 8.04588 31.4957 8.2561 31.8622C8.46633 32.2259 8.60838 32.642 8.68224 33.1108ZM11.4298 30.2727V39H10.1556V30.2727H11.4298ZM13.1439 39V32.4545H14.418V39H13.1439ZM13.7874 31.4446C13.5658 31.4446 13.3754 31.3707 13.2163 31.223C13.0601 31.0724 12.982 30.8935 12.982 30.6861C12.982 30.4759 13.0601 30.2969 13.2163 30.1491C13.3754 29.9986 13.5658 29.9233 13.7874 29.9233C14.0089 29.9233 14.1979 29.9986 14.3541 30.1491C14.5132 30.2969 14.5928 30.4759 14.5928 30.6861C14.5928 30.8935 14.5132 31.0724 14.3541 31.223C14.1979 31.3707 14.0089 31.4446 13.7874 31.4446ZM18.9532 39.1321C18.3083 39.1321 17.7529 38.9943 17.287 38.7188C16.8239 38.4403 16.466 38.0497 16.2131 37.5469C15.9631 37.0412 15.8381 36.4489 15.8381 35.7699C15.8381 35.0994 15.9631 34.5085 16.2131 33.9972C16.466 33.4858 16.8182 33.0866 17.27 32.7997C17.7245 32.5128 18.2557 32.3693 18.8637 32.3693C19.233 32.3693 19.591 32.4304 19.9376 32.5526C20.2842 32.6747 20.5952 32.8665 20.8708 33.1278C21.1464 33.3892 21.3637 33.7287 21.5228 34.1463C21.6819 34.5611 21.7614 35.0653 21.7614 35.6591V36.1108H16.5583V35.1562H20.5129C20.5129 34.821 20.4447 34.5241 20.3083 34.2656C20.1719 34.0043 19.9802 33.7983 19.733 33.6477C19.4887 33.4972 19.2018 33.4219 18.8722 33.4219C18.5143 33.4219 18.2018 33.5099 17.9347 33.6861C17.6705 33.8594 17.466 34.0866 17.3211 34.3679C17.179 34.6463 17.108 34.9489 17.108 35.2756V36.0213C17.108 36.4588 17.1847 36.831 17.3381 37.1378C17.4944 37.4446 17.7117 37.679 17.9901 37.8409C18.2685 38 18.5938 38.0795 18.966 38.0795C19.2075 38.0795 19.4276 38.0455 19.6265 37.9773C19.8254 37.9062 19.9972 37.8011 20.1421 37.6619C20.287 37.5227 20.3978 37.3509 20.4745 37.1463L21.6805 37.3636C21.5839 37.7187 21.4106 38.0298 21.1606 38.2969C20.9134 38.5611 20.6023 38.767 20.2273 38.9148C19.8552 39.0597 19.4305 39.1321 18.9532 39.1321ZM24.4493 35.1136V39H23.1751V32.4545H24.3981V33.5199H24.4791C24.6297 33.1733 24.8655 32.8949 25.1865 32.6847C25.5104 32.4744 25.918 32.3693 26.4095 32.3693C26.8555 32.3693 27.2462 32.4631 27.5814 32.6506C27.9166 32.8352 28.1766 33.1108 28.3612 33.4773C28.5459 33.8437 28.6382 34.2969 28.6382 34.8366V39H27.3641V34.9901C27.3641 34.5156 27.2405 34.1449 26.9933 33.8778C26.7462 33.608 26.4067 33.473 25.9749 33.473C25.6794 33.473 25.4166 33.5369 25.1865 33.6648C24.9592 33.7926 24.7788 33.9801 24.6453 34.2273C24.5146 34.4716 24.4493 34.767 24.4493 35.1136ZM33.4024 32.4545V33.4773H29.8271V32.4545H33.4024ZM30.7859 30.8864H32.0601V37.0781C32.0601 37.3253 32.097 37.5114 32.1709 37.6364C32.2447 37.7585 32.3399 37.8423 32.4564 37.8878C32.5757 37.9304 32.705 37.9517 32.8442 37.9517C32.9464 37.9517 33.0359 37.9446 33.1126 37.9304C33.1893 37.9162 33.249 37.9048 33.2916 37.8963L33.5217 38.9489C33.4479 38.9773 33.3428 39.0057 33.2064 39.0341C33.07 39.0653 32.8996 39.0824 32.695 39.0852C32.3598 39.0909 32.0473 39.0312 31.7575 38.9062C31.4678 38.7812 31.2334 38.5881 31.0544 38.3267C30.8754 38.0653 30.7859 37.7372 30.7859 37.3423V30.8864ZM37.5626 39.1321C36.9177 39.1321 36.3623 38.9943 35.8964 38.7188C35.4333 38.4403 35.0754 38.0497 34.8225 37.5469C34.5725 37.0412 34.4475 36.4489 34.4475 35.7699C34.4475 35.0994 34.5725 34.5085 34.8225 33.9972C35.0754 33.4858 35.4276 33.0866 35.8793 32.7997C36.3339 32.5128 36.8651 32.3693 37.4731 32.3693C37.8424 32.3693 38.2004 32.4304 38.5469 32.5526C38.8935 32.6747 39.2046 32.8665 39.4802 33.1278C39.7557 33.3892 39.9731 33.7287 40.1322 34.1463C40.2913 34.5611 40.3708 35.0653 40.3708 35.6591V36.1108H35.1677V35.1562H39.1222C39.1222 34.821 39.054 34.5241 38.9177 34.2656C38.7813 34.0043 38.5896 33.7983 38.3424 33.6477C38.0981 33.4972 37.8111 33.4219 37.4816 33.4219C37.1236 33.4219 36.8111 33.5099 36.5441 33.6861C36.2799 33.8594 36.0754 34.0866 35.9305 34.3679C35.7884 34.6463 35.7174 34.9489 35.7174 35.2756V36.0213C35.7174 36.4588 35.7941 36.831 35.9475 37.1378C36.1038 37.4446 36.3211 37.679 36.5995 37.8409C36.8779 38 37.2032 38.0795 37.5754 38.0795C37.8168 38.0795 38.037 38.0455 38.2359 37.9773C38.4347 37.9062 38.6066 37.8011 38.7515 37.6619C38.8964 37.5227 39.0072 37.3509 39.0839 37.1463L40.2898 37.3636C40.1932 37.7187 40.02 38.0298 39.77 38.2969C39.5228 38.5611 39.2117 38.767 38.8367 38.9148C38.4646 39.0597 38.0398 39.1321 37.5626 39.1321ZM47.7813 39.1321C47.1364 39.1321 46.581 38.9943 46.1151 38.7188C45.6521 38.4403 45.2941 38.0497 45.0413 37.5469C44.7913 37.0412 44.6663 36.4489 44.6663 35.7699C44.6663 35.0994 44.7913 34.5085 45.0413 33.9972C45.2941 33.4858 45.6464 33.0866 46.0981 32.7997C46.5526 32.5128 47.0839 32.3693 47.6918 32.3693C48.0611 32.3693 48.4191 32.4304 48.7657 32.5526C49.1123 32.6747 49.4234 32.8665 49.6989 33.1278C49.9745 33.3892 50.1918 33.7287 50.3509 34.1463C50.51 34.5611 50.5896 35.0653 50.5896 35.6591V36.1108H45.3864V35.1562H49.341C49.341 34.821 49.2728 34.5241 49.1364 34.2656C49.0001 34.0043 48.8083 33.7983 48.5611 33.6477C48.3168 33.4972 48.0299 33.4219 47.7004 33.4219C47.3424 33.4219 47.0299 33.5099 46.7629 33.6861C46.4986 33.8594 46.2941 34.0866 46.1492 34.3679C46.0072 34.6463 45.9361 34.9489 45.9361 35.2756V36.0213C45.9361 36.4588 46.0129 36.831 46.1663 37.1378C46.3225 37.4446 46.5398 37.679 46.8182 37.8409C47.0967 38 47.4219 38.0795 47.7941 38.0795C48.0356 38.0795 48.2557 38.0455 48.4546 37.9773C48.6535 37.9062 48.8254 37.8011 48.9702 37.6619C49.1151 37.5227 49.2259 37.3509 49.3026 37.1463L50.5086 37.3636C50.412 37.7187 50.2387 38.0298 49.9887 38.2969C49.7415 38.5611 49.4305 38.767 49.0555 38.9148C48.6833 39.0597 48.2586 39.1321 47.7813 39.1321ZM55.2813 39V30.2727H58.3921C59.0711 30.2727 59.6336 30.3963 60.0796 30.6435C60.5256 30.8906 60.8594 31.2287 61.081 31.6577C61.3026 32.0838 61.4134 32.5639 61.4134 33.098C61.4134 33.6349 61.3012 34.1179 61.0768 34.5469C60.8552 34.973 60.52 35.3111 60.0711 35.5611C59.6251 35.8082 59.064 35.9318 58.3879 35.9318H56.2486V34.8153H58.2685C58.6975 34.8153 59.0455 34.7415 59.3126 34.5938C59.5796 34.4432 59.7756 34.2386 59.9006 33.9801C60.0256 33.7216 60.0881 33.4276 60.0881 33.098C60.0881 32.7685 60.0256 32.4759 59.9006 32.2202C59.7756 31.9645 59.5782 31.7642 59.3083 31.6193C59.0413 31.4744 58.689 31.402 58.2515 31.402H56.5981V39H55.2813ZM62.8548 39V32.4545H64.0864V33.4943H64.1545C64.2739 33.142 64.4841 32.8651 64.7852 32.6634C65.0892 32.4588 65.433 32.3565 65.8165 32.3565C65.896 32.3565 65.9898 32.3594 66.0977 32.3651C66.2085 32.3707 66.2952 32.3778 66.3577 32.3864V33.6051C66.3065 33.5909 66.2156 33.5753 66.0849 33.5582C65.9543 33.5384 65.8236 33.5284 65.6929 33.5284C65.3918 33.5284 65.1233 33.5923 64.8875 33.7202C64.6545 33.8452 64.4699 34.0199 64.3335 34.2443C64.1972 34.4659 64.129 34.7187 64.129 35.0028V39H62.8548ZM69.983 39.1321C69.3694 39.1321 68.8339 38.9915 68.3765 38.7102C67.9191 38.429 67.564 38.0355 67.3111 37.5298C67.0583 37.0241 66.9319 36.4332 66.9319 35.7571C66.9319 35.0781 67.0583 34.4844 67.3111 33.9759C67.564 33.4673 67.9191 33.0724 68.3765 32.7912C68.8339 32.5099 69.3694 32.3693 69.983 32.3693C70.5967 32.3693 71.1322 32.5099 71.5896 32.7912C72.0469 33.0724 72.4021 33.4673 72.6549 33.9759C72.9077 34.4844 73.0342 35.0781 73.0342 35.7571C73.0342 36.4332 72.9077 37.0241 72.6549 37.5298C72.4021 38.0355 72.0469 38.429 71.5896 38.7102C71.1322 38.9915 70.5967 39.1321 69.983 39.1321ZM69.9873 38.0625C70.385 38.0625 70.7146 37.9574 70.9759 37.7472C71.2373 37.5369 71.4305 37.2571 71.5555 36.9077C71.6833 36.5582 71.7472 36.1733 71.7472 35.7528C71.7472 35.3352 71.6833 34.9517 71.5555 34.6023C71.4305 34.25 71.2373 33.9673 70.9759 33.7543C70.7146 33.5412 70.385 33.4347 69.9873 33.4347C69.5867 33.4347 69.2543 33.5412 68.9901 33.7543C68.7288 33.9673 68.5342 34.25 68.4063 34.6023C68.2813 34.9517 68.2188 35.3352 68.2188 35.7528C68.2188 36.1733 68.2813 36.5582 68.4063 36.9077C68.5342 37.2571 68.7288 37.5369 68.9901 37.7472C69.2543 37.9574 69.5867 38.0625 69.9873 38.0625ZM74.4564 41.4545V32.4545H75.7007V33.5156H75.8072C75.8811 33.3793 75.9876 33.2216 76.1268 33.0426C76.266 32.8636 76.4592 32.7074 76.7064 32.5739C76.9535 32.4375 77.2803 32.3693 77.6865 32.3693C78.2149 32.3693 78.6865 32.5028 79.1013 32.7699C79.516 33.0369 79.8413 33.4219 80.0771 33.9247C80.3158 34.4276 80.4351 35.0327 80.4351 35.7401C80.4351 36.4474 80.3172 37.054 80.0814 37.5597C79.8456 38.0625 79.5217 38.4503 79.1098 38.723C78.6979 38.9929 78.2277 39.1278 77.6993 39.1278C77.3016 39.1278 76.9763 39.0611 76.7234 38.9276C76.4734 38.794 76.2774 38.6378 76.1354 38.4588C75.9933 38.2798 75.8839 38.1207 75.8072 37.9815H75.7305V41.4545H74.4564ZM75.705 35.7273C75.705 36.1875 75.7717 36.5909 75.9053 36.9375C76.0388 37.2841 76.232 37.5554 76.4848 37.7514C76.7376 37.9446 77.0473 38.0412 77.4138 38.0412C77.7945 38.0412 78.1126 37.9403 78.3683 37.7386C78.624 37.5341 78.8172 37.2571 78.9479 36.9077C79.0814 36.5582 79.1481 36.1648 79.1481 35.7273C79.1481 35.2955 79.0828 34.9077 78.9521 34.5639C78.8243 34.2202 78.6311 33.9489 78.3726 33.75C78.1169 33.5511 77.7973 33.4517 77.4138 33.4517C77.0445 33.4517 76.732 33.5469 76.4763 33.7372C76.2234 33.9276 76.0317 34.1932 75.901 34.5341C75.7703 34.875 75.705 35.2727 75.705 35.7273ZM84.6197 39.1321C84.0061 39.1321 83.4706 38.9915 83.0132 38.7102C82.5558 38.429 82.2007 38.0355 81.9479 37.5298C81.695 37.0241 81.5686 36.4332 81.5686 35.7571C81.5686 35.0781 81.695 34.4844 81.9479 33.9759C82.2007 33.4673 82.5558 33.0724 83.0132 32.7912C83.4706 32.5099 84.0061 32.3693 84.6197 32.3693C85.2334 32.3693 85.7689 32.5099 86.2263 32.7912C86.6837 33.0724 87.0388 33.4673 87.2916 33.9759C87.5445 34.4844 87.6709 35.0781 87.6709 35.7571C87.6709 36.4332 87.5445 37.0241 87.2916 37.5298C87.0388 38.0355 86.6837 38.429 86.2263 38.7102C85.7689 38.9915 85.2334 39.1321 84.6197 39.1321ZM84.624 38.0625C85.0217 38.0625 85.3513 37.9574 85.6126 37.7472C85.874 37.5369 86.0672 37.2571 86.1922 36.9077C86.32 36.5582 86.3839 36.1733 86.3839 35.7528C86.3839 35.3352 86.32 34.9517 86.1922 34.6023C86.0672 34.25 85.874 33.9673 85.6126 33.7543C85.3513 33.5412 85.0217 33.4347 84.624 33.4347C84.2234 33.4347 83.891 33.5412 83.6268 33.7543C83.3655 33.9673 83.1709 34.25 83.043 34.6023C82.918 34.9517 82.8555 35.3352 82.8555 35.7528C82.8555 36.1733 82.918 36.5582 83.043 36.9077C83.1709 37.2571 83.3655 37.5369 83.6268 37.7472C83.891 37.9574 84.2234 38.0625 84.624 38.0625ZM93.9979 34.0526L92.8431 34.2571C92.7948 34.1094 92.7181 33.9687 92.613 33.8352C92.5107 33.7017 92.3715 33.5923 92.1954 33.5071C92.0192 33.4219 91.7991 33.3793 91.5349 33.3793C91.1741 33.3793 90.8729 33.4602 90.6315 33.6222C90.39 33.7812 90.2692 33.9872 90.2692 34.2401C90.2692 34.4588 90.3502 34.6349 90.5121 34.7685C90.6741 34.902 90.9354 35.0114 91.2962 35.0966L92.336 35.3352C92.9383 35.4744 93.3871 35.6889 93.6826 35.9787C93.978 36.2685 94.1258 36.6449 94.1258 37.108C94.1258 37.5 94.0121 37.8494 93.7849 38.1562C93.5604 38.4602 93.2465 38.6989 92.8431 38.8722C92.4425 39.0455 91.978 39.1321 91.4496 39.1321C90.7167 39.1321 90.1187 38.9759 89.6556 38.6634C89.1925 38.348 88.9084 37.9006 88.8033 37.321L90.0349 37.1335C90.1116 37.4545 90.2692 37.6974 90.5079 37.8622C90.7465 38.0241 91.0576 38.1051 91.4411 38.1051C91.8587 38.1051 92.1925 38.0185 92.4425 37.8452C92.6925 37.669 92.8175 37.4545 92.8175 37.2017C92.8175 36.9972 92.7408 36.8253 92.5874 36.6861C92.4369 36.5469 92.2053 36.4418 91.8928 36.3707L90.7849 36.1278C90.1741 35.9886 89.7224 35.767 89.4298 35.4631C89.14 35.1591 88.9951 34.7741 88.9951 34.3082C88.9951 33.9219 89.103 33.5838 89.319 33.294C89.5349 33.0043 89.8332 32.7784 90.2138 32.6165C90.5945 32.4517 91.0306 32.3693 91.5221 32.3693C92.2295 32.3693 92.7863 32.5227 93.1925 32.8295C93.5988 33.1335 93.8673 33.5412 93.9979 34.0526ZM98.5821 32.4545V33.4773H95.0068V32.4545H98.5821ZM95.9656 30.8864H97.2398V37.0781C97.2398 37.3253 97.2767 37.5114 97.3506 37.6364C97.4244 37.7585 97.5196 37.8423 97.6361 37.8878C97.7554 37.9304 97.8847 37.9517 98.0239 37.9517C98.1261 37.9517 98.2156 37.9446 98.2923 37.9304C98.369 37.9162 98.4287 37.9048 98.4713 37.8963L98.7014 38.9489C98.6276 38.9773 98.5224 39.0057 98.3861 39.0341C98.2497 39.0653 98.0793 39.0824 97.8747 39.0852C97.5395 39.0909 97.227 39.0312 96.9372 38.9062C96.6474 38.7812 96.4131 38.5881 96.2341 38.3267C96.0551 38.0653 95.9656 37.7372 95.9656 37.3423V30.8864ZM101.896 39.1449C101.482 39.1449 101.107 39.0682 100.771 38.9148C100.436 38.7585 100.171 38.5327 99.9745 38.2372C99.7813 37.9418 99.6847 37.5795 99.6847 37.1506C99.6847 36.7812 99.7557 36.4773 99.8978 36.2386C100.04 36 100.232 35.8111 100.473 35.6719C100.715 35.5327 100.984 35.4276 101.283 35.3565C101.581 35.2855 101.885 35.2315 102.195 35.1946C102.587 35.1491 102.905 35.1122 103.149 35.0838C103.394 35.0526 103.571 35.0028 103.682 34.9347C103.793 34.8665 103.848 34.7557 103.848 34.6023V34.5724C103.848 34.2003 103.743 33.9119 103.533 33.7074C103.325 33.5028 103.016 33.4006 102.604 33.4006C102.175 33.4006 101.837 33.4957 101.59 33.6861C101.345 33.8736 101.176 34.0824 101.082 34.3125L99.885 34.0398C100.027 33.642 100.234 33.321 100.507 33.0767C100.783 32.8295 101.099 32.6506 101.457 32.5398C101.815 32.4261 102.192 32.3693 102.587 32.3693C102.848 32.3693 103.125 32.4006 103.418 32.4631C103.713 32.5227 103.989 32.6335 104.244 32.7955C104.503 32.9574 104.715 33.1889 104.879 33.4901C105.044 33.7884 105.126 34.1761 105.126 34.6534V39H103.882V38.1051H103.831C103.749 38.2699 103.625 38.4318 103.46 38.5909C103.296 38.75 103.084 38.8821 102.825 38.9872C102.567 39.0923 102.257 39.1449 101.896 39.1449ZM102.173 38.1222C102.526 38.1222 102.827 38.0526 103.077 37.9134C103.33 37.7741 103.521 37.5923 103.652 37.3679C103.786 37.1406 103.852 36.8977 103.852 36.6392V35.7955C103.807 35.8409 103.719 35.8835 103.588 35.9233C103.46 35.9602 103.314 35.9929 103.149 36.0213C102.984 36.0469 102.824 36.071 102.668 36.0938C102.511 36.1136 102.381 36.1307 102.276 36.1449C102.028 36.1761 101.803 36.2287 101.598 36.3026C101.396 36.3764 101.234 36.483 101.112 36.6222C100.993 36.7585 100.933 36.9403 100.933 37.1676C100.933 37.483 101.05 37.7216 101.283 37.8835C101.516 38.0426 101.813 38.1222 102.173 38.1222Z" fill="#1C64F2"/>
<path d="M166.907 39H164.082V30.2727H166.997C167.852 30.2727 168.586 30.4474 169.2 30.7969C169.814 31.1435 170.284 31.642 170.611 32.2926C170.94 32.9403 171.105 33.7173 171.105 34.6236C171.105 35.5327 170.939 36.3139 170.606 36.9673C170.277 37.6207 169.799 38.1236 169.174 38.4759C168.549 38.8253 167.794 39 166.907 39ZM165.399 37.8494H166.835C167.5 37.8494 168.052 37.7244 168.493 37.4744C168.933 37.2216 169.262 36.8565 169.481 36.3793C169.7 35.8991 169.809 35.3139 169.809 34.6236C169.809 33.9389 169.7 33.358 169.481 32.8807C169.265 32.4034 168.943 32.0412 168.514 31.794C168.085 31.5469 167.552 31.4233 166.916 31.4233H165.399V37.8494ZM175.461 39.1321C174.816 39.1321 174.261 38.9943 173.795 38.7188C173.332 38.4403 172.974 38.0497 172.721 37.5469C172.471 37.0412 172.346 36.4489 172.346 35.7699C172.346 35.0994 172.471 34.5085 172.721 33.9972C172.974 33.4858 173.326 33.0866 173.778 32.7997C174.232 32.5128 174.764 32.3693 175.372 32.3693C175.741 32.3693 176.099 32.4304 176.445 32.5526C176.792 32.6747 177.103 32.8665 177.379 33.1278C177.654 33.3892 177.872 33.7287 178.031 34.1463C178.19 34.5611 178.269 35.0653 178.269 35.6591V36.1108H173.066V35.1562H177.021C177.021 34.821 176.952 34.5241 176.816 34.2656C176.68 34.0043 176.488 33.7983 176.241 33.6477C175.997 33.4972 175.71 33.4219 175.38 33.4219C175.022 33.4219 174.71 33.5099 174.443 33.6861C174.178 33.8594 173.974 34.0866 173.829 34.3679C173.687 34.6463 173.616 34.9489 173.616 35.2756V36.0213C173.616 36.4588 173.693 36.831 173.846 37.1378C174.002 37.4446 174.22 37.679 174.498 37.8409C174.776 38 175.102 38.0795 175.474 38.0795C175.715 38.0795 175.935 38.0455 176.134 37.9773C176.333 37.9062 176.505 37.8011 176.65 37.6619C176.795 37.5227 176.906 37.3509 176.982 37.1463L178.188 37.3636C178.092 37.7187 177.918 38.0298 177.668 38.2969C177.421 38.5611 177.11 38.767 176.735 38.9148C176.363 39.0597 175.938 39.1321 175.461 39.1321ZM184.588 34.0526L183.433 34.2571C183.385 34.1094 183.308 33.9687 183.203 33.8352C183.101 33.7017 182.961 33.5923 182.785 33.5071C182.609 33.4219 182.389 33.3793 182.125 33.3793C181.764 33.3793 181.463 33.4602 181.221 33.6222C180.98 33.7812 180.859 33.9872 180.859 34.2401C180.859 34.4588 180.94 34.6349 181.102 34.7685C181.264 34.902 181.525 35.0114 181.886 35.0966L182.926 35.3352C183.528 35.4744 183.977 35.6889 184.272 35.9787C184.568 36.2685 184.716 36.6449 184.716 37.108C184.716 37.5 184.602 37.8494 184.375 38.1562C184.15 38.4602 183.836 38.6989 183.433 38.8722C183.032 39.0455 182.568 39.1321 182.039 39.1321C181.307 39.1321 180.709 38.9759 180.245 38.6634C179.782 38.348 179.498 37.9006 179.393 37.321L180.625 37.1335C180.701 37.4545 180.859 37.6974 181.098 37.8622C181.336 38.0241 181.647 38.1051 182.031 38.1051C182.449 38.1051 182.782 38.0185 183.032 37.8452C183.282 37.669 183.407 37.4545 183.407 37.2017C183.407 36.9972 183.331 36.8253 183.177 36.6861C183.027 36.5469 182.795 36.4418 182.483 36.3707L181.375 36.1278C180.764 35.9886 180.312 35.767 180.02 35.4631C179.73 35.1591 179.585 34.7741 179.585 34.3082C179.585 33.9219 179.693 33.5838 179.909 33.294C180.125 33.0043 180.423 32.7784 180.804 32.6165C181.184 32.4517 181.62 32.3693 182.112 32.3693C182.819 32.3693 183.376 32.5227 183.782 32.8295C184.189 33.1335 184.457 33.5412 184.588 34.0526ZM186.117 39V32.4545H187.391V39H186.117ZM186.76 31.4446C186.538 31.4446 186.348 31.3707 186.189 31.223C186.033 31.0724 185.955 30.8935 185.955 30.6861C185.955 30.4759 186.033 30.2969 186.189 30.1491C186.348 29.9986 186.538 29.9233 186.76 29.9233C186.982 29.9233 187.171 29.9986 187.327 30.1491C187.486 30.2969 187.565 30.4759 187.565 30.6861C187.565 30.8935 187.486 31.0724 187.327 31.223C187.171 31.3707 186.982 31.4446 186.76 31.4446ZM191.849 41.5909C191.329 41.5909 190.882 41.5227 190.507 41.3864C190.135 41.25 189.831 41.0696 189.595 40.8452C189.359 40.6207 189.183 40.375 189.066 40.108L190.162 39.6562C190.238 39.7812 190.341 39.9134 190.468 40.0526C190.599 40.1946 190.775 40.3153 190.997 40.4148C191.221 40.5142 191.51 40.5639 191.862 40.5639C192.345 40.5639 192.744 40.446 193.059 40.2102C193.375 39.9773 193.532 39.6051 193.532 39.0938V37.8068H193.451C193.375 37.946 193.264 38.1009 193.119 38.2713C192.977 38.4418 192.781 38.5895 192.531 38.7145C192.281 38.8395 191.956 38.902 191.555 38.902C191.038 38.902 190.572 38.7812 190.157 38.5398C189.745 38.2955 189.419 37.9361 189.177 37.4616C188.939 36.9844 188.819 36.3977 188.819 35.7017C188.819 35.0057 188.937 34.4091 189.173 33.9119C189.412 33.4148 189.738 33.0341 190.153 32.7699C190.568 32.5028 191.038 32.3693 191.564 32.3693C191.97 32.3693 192.298 32.4375 192.548 32.5739C192.798 32.7074 192.993 32.8636 193.132 33.0426C193.274 33.2216 193.383 33.3793 193.46 33.5156H193.554V32.4545H194.802V39.1449C194.802 39.7074 194.672 40.169 194.41 40.5298C194.149 40.8906 193.795 41.1577 193.349 41.331C192.906 41.5043 192.406 41.5909 191.849 41.5909ZM191.836 37.8452C192.203 37.8452 192.512 37.7599 192.765 37.5895C193.021 37.4162 193.214 37.169 193.345 36.848C193.478 36.5241 193.545 36.1364 193.545 35.6847C193.545 35.2443 193.48 34.8565 193.349 34.5213C193.218 34.1861 193.027 33.9247 192.774 33.7372C192.521 33.5469 192.209 33.4517 191.836 33.4517C191.453 33.4517 191.133 33.5511 190.878 33.75C190.622 33.946 190.429 34.2131 190.298 34.5511C190.17 34.8892 190.106 35.267 190.106 35.6847C190.106 36.1136 190.172 36.4901 190.302 36.8139C190.433 37.1378 190.626 37.3906 190.882 37.5724C191.14 37.7543 191.459 37.8452 191.836 37.8452ZM197.785 35.1136V39H196.511V32.4545H197.734V33.5199H197.815C197.966 33.1733 198.201 32.8949 198.522 32.6847C198.846 32.4744 199.254 32.3693 199.745 32.3693C200.191 32.3693 200.582 32.4631 200.917 32.6506C201.253 32.8352 201.512 33.1108 201.697 33.4773C201.882 33.8437 201.974 34.2969 201.974 34.8366V39H200.7V34.9901C200.7 34.5156 200.576 34.1449 200.329 33.8778C200.082 33.608 199.743 33.473 199.311 33.473C199.015 33.473 198.753 33.5369 198.522 33.6648C198.295 33.7926 198.115 33.9801 197.981 34.2273C197.851 34.4716 197.785 34.767 197.785 35.1136Z" fill="#1C64F2"/>
<path d="M293.215 39V30.2727H296.326C297.002 30.2727 297.563 30.3892 298.009 30.6222C298.458 30.8551 298.793 31.1776 299.015 31.5895C299.236 31.9986 299.347 32.4716 299.347 33.0085C299.347 33.5426 299.235 34.0128 299.011 34.419C298.789 34.8224 298.454 35.1364 298.005 35.3608C297.559 35.5852 296.998 35.6974 296.322 35.6974H293.965V34.5639H296.202C296.629 34.5639 296.975 34.5028 297.242 34.3807C297.512 34.2585 297.709 34.081 297.834 33.848C297.959 33.6151 298.022 33.3352 298.022 33.0085C298.022 32.679 297.958 32.3935 297.83 32.152C297.705 31.9105 297.508 31.7259 297.238 31.598C296.971 31.4673 296.62 31.402 296.185 31.402H294.532V39H293.215ZM297.523 35.0625L299.68 39H298.18L296.066 35.0625H297.523ZM303.586 39.1321C302.941 39.1321 302.386 38.9943 301.92 38.7188C301.457 38.4403 301.099 38.0497 300.846 37.5469C300.596 37.0412 300.471 36.4489 300.471 35.7699C300.471 35.0994 300.596 34.5085 300.846 33.9972C301.099 33.4858 301.451 33.0866 301.903 32.7997C302.358 32.5128 302.889 32.3693 303.497 32.3693C303.866 32.3693 304.224 32.4304 304.571 32.5526C304.917 32.6747 305.228 32.8665 305.504 33.1278C305.779 33.3892 305.997 33.7287 306.156 34.1463C306.315 34.5611 306.394 35.0653 306.394 35.6591V36.1108H301.191V35.1562H305.146C305.146 34.821 305.078 34.5241 304.941 34.2656C304.805 34.0043 304.613 33.7983 304.366 33.6477C304.122 33.4972 303.835 33.4219 303.505 33.4219C303.147 33.4219 302.835 33.5099 302.568 33.6861C302.304 33.8594 302.099 34.0866 301.954 34.3679C301.812 34.6463 301.741 34.9489 301.741 35.2756V36.0213C301.741 36.4588 301.818 36.831 301.971 37.1378C302.127 37.4446 302.345 37.679 302.623 37.8409C302.902 38 303.227 38.0795 303.599 38.0795C303.841 38.0795 304.061 38.0455 304.26 37.9773C304.458 37.9062 304.63 37.8011 304.775 37.6619C304.92 37.5227 305.031 37.3509 305.108 37.1463L306.314 37.3636C306.217 37.7187 306.044 38.0298 305.794 38.2969C305.546 38.5611 305.235 38.767 304.86 38.9148C304.488 39.0597 304.064 39.1321 303.586 39.1321ZM313.22 32.4545L310.847 39H309.483L307.105 32.4545H308.473L310.131 37.4915H310.199L311.852 32.4545H313.22ZM314.418 39V32.4545H315.692V39H314.418ZM315.061 31.4446C314.839 31.4446 314.649 31.3707 314.49 31.223C314.334 31.0724 314.256 30.8935 314.256 30.6861C314.256 30.4759 314.334 30.2969 314.49 30.1491C314.649 29.9986 314.839 29.9233 315.061 29.9233C315.283 29.9233 315.472 29.9986 315.628 30.1491C315.787 30.2969 315.866 30.4759 315.866 30.6861C315.866 30.8935 315.787 31.0724 315.628 31.223C315.472 31.3707 315.283 31.4446 315.061 31.4446ZM320.227 39.1321C319.582 39.1321 319.027 38.9943 318.561 38.7188C318.098 38.4403 317.74 38.0497 317.487 37.5469C317.237 37.0412 317.112 36.4489 317.112 35.7699C317.112 35.0994 317.237 34.5085 317.487 33.9972C317.74 33.4858 318.092 33.0866 318.544 32.7997C318.998 32.5128 319.529 32.3693 320.137 32.3693C320.507 32.3693 320.865 32.4304 321.211 32.5526C321.558 32.6747 321.869 32.8665 322.144 33.1278C322.42 33.3892 322.637 33.7287 322.796 34.1463C322.956 34.5611 323.035 35.0653 323.035 35.6591V36.1108H317.832V35.1562H321.787C321.787 34.821 321.718 34.5241 321.582 34.2656C321.446 34.0043 321.254 33.7983 321.007 33.6477C320.762 33.4972 320.475 33.4219 320.146 33.4219C319.788 33.4219 319.475 33.5099 319.208 33.6861C318.944 33.8594 318.74 34.0866 318.595 34.3679C318.453 34.6463 318.382 34.9489 318.382 35.2756V36.0213C318.382 36.4588 318.458 36.831 318.612 37.1378C318.768 37.4446 318.985 37.679 319.264 37.8409C319.542 38 319.867 38.0795 320.24 38.0795C320.481 38.0795 320.701 38.0455 320.9 37.9773C321.099 37.9062 321.271 37.8011 321.416 37.6619C321.561 37.5227 321.671 37.3509 321.748 37.1463L322.954 37.3636C322.858 37.7187 322.684 38.0298 322.434 38.2969C322.187 38.5611 321.876 38.767 321.501 38.9148C321.129 39.0597 320.704 39.1321 320.227 39.1321ZM325.856 39L323.93 32.4545H325.247L326.529 37.2614H326.593L327.88 32.4545H329.197L330.475 37.2401H330.539L331.814 32.4545H333.13L331.208 39H329.909L328.579 34.2741H328.481L327.152 39H325.856Z" fill="#6B7280"/>
<path opacity="0.8" d="M182.886 17C186.761 17 189.829 13.8252 189.829 10C189.829 6.17475 186.761 3 182.886 3C179.011 3 175.943 6.17475 175.943 10C175.943 13.8252 179.011 17 182.886 17Z" stroke="#C3DDFD" stroke-width="6"/>
<ellipse cx="182.886" cy="10" rx="7.88599" ry="8" fill="#1C64F2"/>
<ellipse cx="182.886" cy="10" rx="3.94299" ry="4" fill="white"/>
<ellipse cx="52.886" cy="10" rx="7.88599" ry="8" fill="#1C64F2"/>
<rect x="45" y="2" width="15.772" height="16" rx="7.88599" stroke="#1C64F2"/>
</svg>
