<svg width="50" height="51" viewBox="0 0 50 51" fill="none" xmlns="http://www.w3.org/2000/svg">
<g clip-path="url(#clip0_12670_53521)">
<path d="M49.2468 31.1276C45.9078 44.5206 32.3421 52.6706 18.9476 49.3315C5.55931 45.9924 -2.59147 32.4268 0.748374 19.0346C4.08588 5.64009 17.6507 -2.51147 31.0414 0.82759C44.4351 4.16665 52.5851 17.7338 49.2461 31.1276H49.2468Z" fill="#F7931A"/>
<path d="M36.0203 21.5182C36.5171 18.1917 33.9843 16.4034 30.521 15.2104L31.6445 10.7042L28.9007 10.0206L27.807 14.4081C27.0867 14.2284 26.346 14.0589 25.6101 13.8909L26.7117 9.47449L23.9703 8.79089L22.846 13.2956C22.2492 13.1596 21.6632 13.0253 21.0945 12.8839L21.0976 12.8698L17.3148 11.9253L16.5851 14.855C16.5851 14.855 18.6203 15.3214 18.5773 15.3503C19.6882 15.6276 19.8898 16.3628 19.8554 16.9456L18.5757 22.0792C18.6523 22.0987 18.7515 22.1268 18.8609 22.1706L18.5718 22.0987L16.7773 29.2901C16.6414 29.6276 16.2968 30.1339 15.5203 29.9417C15.5476 29.9815 13.5265 29.444 13.5265 29.444L12.1648 32.5846L15.7351 33.4745C16.3992 33.6409 17.05 33.8151 17.6898 33.9792L16.5546 38.5378L19.2945 39.2214L20.4195 34.712C21.1671 34.9151 21.8937 35.1026 22.6046 35.2792L21.4843 39.7675L24.2273 40.451L25.3624 35.9018C30.0398 36.787 33.5578 36.43 35.0367 32.2003C36.2296 28.794 34.9781 26.8292 32.5171 25.5471C34.3093 25.1323 35.6593 23.9534 36.0195 21.5182H36.0203ZM29.7523 30.3065C28.9039 33.7128 23.1695 31.8721 21.3093 31.4096L22.8156 25.3714C24.675 25.8354 30.6367 26.7542 29.7531 30.3065H29.7523ZM30.6 21.469C29.8265 24.5675 25.0531 22.9932 23.5039 22.6073L24.8695 17.1307C26.4187 17.5167 31.4062 18.237 30.6 21.469Z" fill="white"/>
</g>
<defs>
<clipPath id="clip0_12670_53521">
<rect width="50" height="50" fill="white" transform="translate(0 0.0799561)"/>
</clipPath>
</defs>
</svg>
