<svg width="48" height="48" viewBox="0 0 48 48" fill="none" xmlns="http://www.w3.org/2000/svg">
<path d="M3.48333 35.75C1.56667 35.75 0 37.3167 0 39.2333C0 41.15 1.56667 42.7167 3.48333 42.7167C5.4 42.7167 6.96667 41.15 6.96667 39.2333C6.96667 37.3167 5.41667 35.75 3.48333 35.75Z" fill="white"/>
<path d="M46.3667 5.33337L24.4333 12.3334V5.41671L0.783325 12.9667V33.0167L21.1833 26.5V33.3834L48 24.8334L40.7333 17.7334L46.3667 5.33337ZM21.1833 23.0667L4.04999 28.5334V15.35L21.1833 9.88337V23.0667ZM41.9333 23.35L24.4333 28.9334V15.7667L40.55 10.6167L36.85 18.4167L41.9333 23.35Z" fill="white"/>
</svg>
