<svg width="50" height="50" viewBox="0 0 50 50" fill="none" xmlns="http://www.w3.org/2000/svg">
<g clip-path="url(#clip0_12670_53517)">
<path d="M46.1292 44.5718C45.5685 43.2013 44.9975 41.8308 44.3745 40.481C43.8242 39.2766 43.1182 38.9236 41.7996 39.2247C40.128 39.6089 38.4875 40.1176 36.8159 40.4602C33.5868 41.1351 30.3474 41.1974 27.1599 40.1903C23.1626 38.934 21.0341 36.0372 19.7259 32.2994H30.5655C31.4169 32.2994 32.1021 31.6142 32.1021 30.7628V27.3468C32.1021 26.4955 31.4169 25.8102 30.5655 25.8102H18.6876C18.6876 24.855 18.6773 23.9413 18.6876 23.0276H30.5655C31.4169 23.0276 32.1021 22.3424 32.1021 21.491V18.0751C32.1021 17.2237 31.4169 16.5384 30.5655 16.5384H20.1827C20.1827 16.4969 20.1827 16.4554 20.2035 16.4346C21.4494 13.6001 23.2664 11.3263 26.2463 10.1427C29.7141 8.77213 33.2546 8.80328 36.8263 9.54046C38.5186 9.88309 40.1799 10.4022 41.8723 10.7864C43.1078 11.0667 43.8242 10.7033 44.3537 9.55084C44.9663 8.22185 45.527 6.87209 46.0877 5.51196C46.6172 4.23488 46.3057 3.33158 45.1013 2.62556C44.8002 2.44905 44.4887 2.30369 44.1668 2.1791C39.1624 0.227144 34.0022 -0.499648 28.6758 0.351736C24.9277 0.953935 21.4287 2.24139 18.4073 4.58789C14.5968 7.53659 12.1258 11.4301 10.6929 16.0089L10.5164 16.5384H5.17971C4.32833 16.5384 3.64307 17.2237 3.64307 18.0751V21.491C3.64307 22.3424 4.32833 23.0276 5.17971 23.0276H9.38471C9.38471 23.9621 9.38471 24.8654 9.38471 25.8102H5.17971C4.32833 25.8102 3.64307 26.4955 3.64307 27.3468V30.7628C3.64307 31.6142 4.32833 32.2994 5.17971 32.2994H10.2465C10.6306 33.5453 10.9525 34.812 11.4405 36.0061C14.005 42.1942 18.3035 46.5964 24.7719 48.6938C30.119 50.4277 35.5077 50.3758 40.8963 48.891C42.298 48.5069 43.6892 48.0085 45.0182 47.3959C46.3057 46.8041 46.6379 45.8074 46.1292 44.5718Z" fill="black"/>
</g>
<defs>
<clipPath id="clip0_12670_53517">
<rect width="50" height="50" fill="white"/>
</clipPath>
</defs>
</svg>
